<?xml version="1.0" standalone="no"?>
 <!DOCTYPE svg PUBLIC "-//W3C//DTD SVG 1.1//EN" 
 "http://www.w3.org/Graphics/SVG/1.1/DTD/svg11.dtd"> 
<svg xmlns="http://www.w3.org/2000/svg" version="1.1" 
    width="6.2357cm" height="5.7277cm" viewBox="0 0 24550 22550 ">
<title>SVG Picture created as cajas-F_Cu.svg date 2016/12/10 16:28:17 </title>
  <desc>Picture generated by PCBNEW </desc>
<g style="fill:#000000; fill-opacity:1;stroke:#000000; stroke-opacity:1;
stroke-linecap:round; stroke-linejoin:round; "
 transform="translate(0 0) scale(1 1)">
</g>
<g style="fill:#000000; fill-opacity:0.0; 
stroke:#000000; stroke-width:59.0551; stroke-opacity:1; 
stroke-linecap:round; stroke-linejoin:round;">
<path d="M24529 29
L29 29
" />
<path d="M24529 22529
L24529 29
" />
<path d="M29 22529
L24529 22529
" />
<path d="M29 29
L29 22529
" />
</g>
<g style="fill:#000000; fill-opacity:0.0; 
stroke:#000000; stroke-width:39.3701; stroke-opacity:1; 
stroke-linecap:round; stroke-linejoin:round;">
</g>
<g style="fill:#000000; fill-opacity:1.0; 
stroke:#000000; stroke-width:39.3701; stroke-opacity:1; 
stroke-linecap:round; stroke-linejoin:round;">
<circle cx="14029.5" cy="16029.5" r="280.315" /> 
<circle cx="18029.5" cy="16029.5" r="280.315" /> 
<circle cx="14029.5" cy="7029.53" r="280.315" /> 
<circle cx="18029.5" cy="7029.53" r="280.315" /> 
<circle cx="14529.5" cy="20529.5" r="280.315" /> 
<circle cx="18529.5" cy="20529.5" r="280.315" /> 
<circle cx="12529.5" cy="16029.5" r="310.315" /> 
<circle cx="11529.5" cy="16029.5" r="310.315" /> 
<circle cx="12529.5" cy="7029.53" r="310.315" /> 
<circle cx="11529.5" cy="7029.53" r="310.315" /> 
<circle cx="12529.5" cy="20529.5" r="310.315" /> 
<circle cx="11529.5" cy="20529.5" r="310.315" /> 
<circle cx="3529.53" cy="5529.53" r="730.315" /> 
<circle cx="3529.53" cy="7529.53" r="730.315" /> 
<polyline style="fill-rule:evenodd;"
points="2799,2799
4259,2799
4259,4259
2799,4259
2799,2799
" /> 
<circle cx="3529.53" cy="9529.53" r="730.315" /> 
<circle cx="20529.5" cy="16029.5" r="780.315" /> 
<circle cx="21029.5" cy="7029.53" r="780.315" /> 
<circle cx="21529.5" cy="20529.5" r="780.315" /> 
<circle cx="9029.53" cy="9529.53" r="780.315" /> 
<circle cx="9029.53" cy="7529.53" r="780.315" /> 
<circle cx="9029.53" cy="5529.53" r="780.315" /> 
<polyline style="fill-rule:evenodd;"
points="3249,14749
3809,14749
3809,15309
3249,15309
3249,14749
" /> 
<circle cx="3529.53" cy="16029.5" r="280.315" /> 
<circle cx="7529.53" cy="14529.5" r="780.315" /> 
<circle cx="7529.53" cy="17029.5" r="780.315" /> 
</g>
<g style="fill:#FFFFFF; fill-opacity:1.0; 
stroke:#FFFFFF; stroke-width:39.3701; stroke-opacity:1; 
stroke-linecap:round; stroke-linejoin:round;">
<circle cx="14029.5" cy="16029.5" r="140.315" /> 
<circle cx="18029.5" cy="16029.5" r="140.315" /> 
<circle cx="14029.5" cy="7029.53" r="140.315" /> 
<circle cx="18029.5" cy="7029.53" r="140.315" /> 
<circle cx="14529.5" cy="20529.5" r="140.315" /> 
<circle cx="18529.5" cy="20529.5" r="140.315" /> 
<circle cx="12529.5" cy="16029.5" r="140.315" /> 
<circle cx="11529.5" cy="16029.5" r="140.315" /> 
<circle cx="12529.5" cy="7029.53" r="140.315" /> 
<circle cx="11529.5" cy="7029.53" r="140.315" /> 
<circle cx="12529.5" cy="20529.5" r="140.315" /> 
<circle cx="11529.5" cy="20529.5" r="140.315" /> 
<circle cx="3529.53" cy="5529.53" r="280.315" /> 
<circle cx="3529.53" cy="7529.53" r="280.315" /> 
<circle cx="3529.53" cy="3529.53" r="280.315" /> 
<circle cx="3529.53" cy="9529.53" r="280.315" /> 
<circle cx="20529.5" cy="16029.5" r="580.315" /> 
<circle cx="21029.5" cy="7029.53" r="580.315" /> 
<circle cx="21529.5" cy="20529.5" r="580.315" /> 
<circle cx="9029.53" cy="9529.53" r="580.315" /> 
<circle cx="9029.53" cy="7529.53" r="580.315" /> 
<circle cx="9029.53" cy="5529.53" r="580.315" /> 
<circle cx="3529.53" cy="15029.5" r="180.315" /> 
<circle cx="3529.53" cy="16029.5" r="180.315" /> 
<circle cx="7529.53" cy="14529.5" r="580.315" /> 
<circle cx="7529.53" cy="17029.5" r="580.315" /> 
</g> 
</svg>
