<?xml version="1.0" standalone="no"?>
 <!DOCTYPE svg PUBLIC "-//W3C//DTD SVG 1.1//EN" 
 "http://www.w3.org/Graphics/SVG/1.1/DTD/svg11.dtd"> 
<svg xmlns="http://www.w3.org/2000/svg" version="1.1" 
    width="6.2357cm" height="5.7277cm" viewBox="0 0 24550 22550 ">
<title>SVG Picture created as cajas-B_Cu.svg date 2016/12/10 16:29:13 </title>
  <desc>Picture generated by PCBNEW </desc>
<g style="fill:#000000; fill-opacity:1;stroke:#000000; stroke-opacity:1;
stroke-linecap:round; stroke-linejoin:round; "
 transform="translate(0 0) scale(1 1)">
</g>
<g style="fill:#000000; fill-opacity:0.0; 
stroke:#000000; stroke-width:59.0551; stroke-opacity:1; 
stroke-linecap:round; stroke-linejoin:round;">
<path d="M24529 29
L29 29
" />
<path d="M24529 22529
L24529 29
" />
<path d="M29 22529
L24529 22529
" />
<path d="M29 29
L29 22529
" />
</g>
<g style="fill:#000000; fill-opacity:0.0; 
stroke:#000000; stroke-width:98.4252; stroke-opacity:1; 
stroke-linecap:round; stroke-linejoin:round;">
<path d="M15370 4674
L15763 4625
L15763 4531
L15745 4477
L15707 4444
L15670 4430
L15595 4421
L15538 4428
L15463 4456
L15426 4479
L15388 4521
L15370 4580
L15370 4674
" />
<path d="M15388 4128
L15370 4168
L15370 4243
L15388 4278
L15426 4292
L15576 4273
L15613 4250
L15632 4210
L15632 4135
L15613 4100
L15576 4086
L15538 4090
L15501 4282
" />
<path d="M15632 3741
L15370 3774
" />
<path d="M15632 3910
L15426 3936
L15388 3922
L15370 3886
L15370 3830
L15388 3790
L15407 3769
" />
<path d="M15632 3610
L15632 3460
" />
<path d="M15763 3537
L15426 3579
L15388 3565
L15370 3530
L15370 3493
" />
<path d="M15388 3209
L15370 3249
L15370 3324
L15388 3359
L15426 3373
L15576 3354
L15613 3331
L15632 3291
L15632 3216
L15613 3181
L15576 3167
L15538 3172
L15501 3364
" />
<path d="M15370 3024
L15632 2991
" />
<path d="M15557 3001
L15595 2977
L15613 2956
L15632 2916
L15632 2879
" />
<path d="M15370 2780
L15632 2747
" />
<path d="M15763 2731
L15745 2752
L15726 2736
L15745 2715
L15763 2731
L15726 2736
" />
<path d="M15370 2537
L15388 2572
L15407 2588
L15445 2602
L15557 2588
L15595 2565
L15613 2544
L15632 2504
L15632 2448
L15613 2412
L15595 2396
L15557 2382
L15445 2396
L15407 2419
L15388 2440
L15370 2480
L15370 2537
" />
</g>
<g style="fill:#000000; fill-opacity:0.0; 
stroke:#000000; stroke-width:39.3701; stroke-opacity:1; 
stroke-linecap:round; stroke-linejoin:round;">
</g>
<g style="fill:#000000; fill-opacity:1.0; 
stroke:#000000; stroke-width:39.3701; stroke-opacity:1; 
stroke-linecap:round; stroke-linejoin:round;">
<circle cx="14029.5" cy="16029.5" r="280.315" /> 
<circle cx="18029.5" cy="16029.5" r="280.315" /> 
<circle cx="14029.5" cy="7029.53" r="280.315" /> 
<circle cx="18029.5" cy="7029.53" r="280.315" /> 
<circle cx="14529.5" cy="20529.5" r="280.315" /> 
<circle cx="18529.5" cy="20529.5" r="280.315" /> 
<circle cx="12529.5" cy="16029.5" r="310.315" /> 
<circle cx="11529.5" cy="16029.5" r="310.315" /> 
<circle cx="12529.5" cy="7029.53" r="310.315" /> 
<circle cx="11529.5" cy="7029.53" r="310.315" /> 
<circle cx="12529.5" cy="20529.5" r="310.315" /> 
<circle cx="11529.5" cy="20529.5" r="310.315" /> 
<circle cx="3529.53" cy="5529.53" r="730.315" /> 
<circle cx="3529.53" cy="7529.53" r="730.315" /> 
<polyline style="fill-rule:evenodd;"
points="2799,2799
4259,2799
4259,4259
2799,4259
2799,2799
" /> 
<circle cx="3529.53" cy="9529.53" r="730.315" /> 
<circle cx="20529.5" cy="16029.5" r="780.315" /> 
<circle cx="21029.5" cy="7029.53" r="780.315" /> 
<circle cx="21529.5" cy="20529.5" r="780.315" /> 
<circle cx="9029.53" cy="9529.53" r="780.315" /> 
<circle cx="9029.53" cy="7529.53" r="780.315" /> 
<circle cx="9029.53" cy="5529.53" r="780.315" /> 
<polyline style="fill-rule:evenodd;"
points="3249,14749
3809,14749
3809,15309
3249,15309
3249,14749
" /> 
<circle cx="3529.53" cy="16029.5" r="280.315" /> 
<circle cx="7529.53" cy="14529.5" r="780.315" /> 
<circle cx="7529.53" cy="17029.5" r="780.315" /> 
</g>
<g style="fill:#000000; fill-opacity:1.0; 
stroke:#000000; stroke-width:629.921; stroke-opacity:1; 
stroke-linecap:round; stroke-linejoin:round;">
<path d="M3529 3529
L6529 3529
" />
<path d="M11529 3529
L11529 7029
" />
<path d="M10529 2529
L11529 3529
" />
<path d="M7529 2529
L10529 2529
" />
<path d="M6529 3529
L7529 2529
" />
<path d="M11529 16029
L11529 7029
" />
<path d="M11529 16029
L11529 20529
" />
<path d="M3529 9529
L9029 9529
" />
<path d="M12529 20529
L14529 20529
" />
<path d="M12529 7029
L14029 7029
" />
<path d="M3529 7529
L9029 7529
" />
<path d="M18029 7029
L21029 7029
" />
<path d="M18029 16029
L20529 16029
" />
<path d="M3529 16029
L5029 16029
" />
<path d="M6029 17029
L7529 17029
" />
<path d="M5029 16029
L6029 17029
" />
<path d="M3529 15029
L5529 15029
" />
<path d="M6029 14529
L7529 14529
" />
<path d="M5529 15029
L6029 14529
" />
<path d="M3529 5529
L9029 5529
" />
<path d="M18529 20529
L21529 20529
" />
<path d="M12529 16029
L14029 16029
" />
</g>
<g style="fill:#FFFFFF; fill-opacity:1.0; 
stroke:#FFFFFF; stroke-width:39.3701; stroke-opacity:1; 
stroke-linecap:round; stroke-linejoin:round;">
<circle cx="14029.5" cy="16029.5" r="140.315" /> 
<circle cx="18029.5" cy="16029.5" r="140.315" /> 
<circle cx="14029.5" cy="7029.53" r="140.315" /> 
<circle cx="18029.5" cy="7029.53" r="140.315" /> 
<circle cx="14529.5" cy="20529.5" r="140.315" /> 
<circle cx="18529.5" cy="20529.5" r="140.315" /> 
<circle cx="12529.5" cy="16029.5" r="140.315" /> 
<circle cx="11529.5" cy="16029.5" r="140.315" /> 
<circle cx="12529.5" cy="7029.53" r="140.315" /> 
<circle cx="11529.5" cy="7029.53" r="140.315" /> 
<circle cx="12529.5" cy="20529.5" r="140.315" /> 
<circle cx="11529.5" cy="20529.5" r="140.315" /> 
<circle cx="3529.53" cy="5529.53" r="280.315" /> 
<circle cx="3529.53" cy="7529.53" r="280.315" /> 
<circle cx="3529.53" cy="3529.53" r="280.315" /> 
<circle cx="3529.53" cy="9529.53" r="280.315" /> 
<circle cx="20529.5" cy="16029.5" r="580.315" /> 
<circle cx="21029.5" cy="7029.53" r="580.315" /> 
<circle cx="21529.5" cy="20529.5" r="580.315" /> 
<circle cx="9029.53" cy="9529.53" r="580.315" /> 
<circle cx="9029.53" cy="7529.53" r="580.315" /> 
<circle cx="9029.53" cy="5529.53" r="580.315" /> 
<circle cx="3529.53" cy="15029.5" r="180.315" /> 
<circle cx="3529.53" cy="16029.5" r="180.315" /> 
<circle cx="7529.53" cy="14529.5" r="580.315" /> 
<circle cx="7529.53" cy="17029.5" r="580.315" /> 
</g> 
</svg>
