<?xml version="1.0" standalone="no"?>
 <!DOCTYPE svg PUBLIC "-//W3C//DTD SVG 1.1//EN" 
 "http://www.w3.org/Graphics/SVG/1.1/DTD/svg11.dtd"> 
<svg xmlns="http://www.w3.org/2000/svg" version="1.1" 
    width="2.75844cm" height="3.8227cm" viewBox="0 0 10860 15050 ">
<title>SVG Picture created as .kicad_pcb-B_Cu.svg date 2016/12/10 17:30:18 </title>
  <desc>Picture generated by PCBNEW </desc>
<g style="fill:#000000; fill-opacity:1;stroke:#000000; stroke-opacity:1;
stroke-linecap:round; stroke-linejoin:round; "
 transform="translate(0 0) scale(1 1)">
</g>
<g style="fill:#000000; fill-opacity:0.0; 
stroke:#000000; stroke-width:59.0551; stroke-opacity:1; 
stroke-linecap:round; stroke-linejoin:round;">
<path d="M340 15029
L840 15029
" />
<path d="M340 29
L340 15029
" />
<path d="M10840 15029
L10840 29
" />
</g>
<g style="fill:#000000; fill-opacity:0.0; 
stroke:#000000; stroke-width:118.11; stroke-opacity:1; 
stroke-linecap:round; stroke-linejoin:round;">
<path d="M3079 12887
L2488 12813
L2488 12672
L2516 12592
L2572 12542
L2629 12521
L2741 12507
L2825 12518
L2938 12560
L2994 12595
L3050 12658
L3079 12746
L3079 12887
" />
<path d="M3050 12068
L3079 12128
L3079 12240
L3050 12293
L2994 12314
L2769 12286
L2713 12251
L2685 12191
L2685 12078
L2713 12026
L2769 12004
L2825 12012
L2882 12300
" />
<path d="M2685 11488
L3079 11537
" />
<path d="M2685 11741
L2994 11780
L3050 11758
L3079 11706
L3079 11621
L3050 11562
L3022 11530
" />
<path d="M2685 11291
L2685 11066
" />
<path d="M2488 11182
L2994 11245
L3050 11224
L3079 11171
L3079 11115
" />
<path d="M3050 10690
L3079 10750
L3079 10862
L3050 10915
L2994 10936
L2769 10908
L2713 10873
L2685 10813
L2685 10700
L2713 10648
L2769 10627
L2825 10634
L2882 10922
" />
<path d="M3079 10412
L2685 10363
" />
<path d="M2797 10377
L2741 10342
L2713 10310
L2685 10250
L2685 10194
" />
<path d="M3079 10047
L2685 9997
" />
<path d="M2488 9973
L2516 10004
L2544 9980
L2516 9948
L2488 9973
L2544 9980
" />
<path d="M3079 9681
L3050 9734
L3022 9758
L2966 9779
L2797 9758
L2741 9723
L2713 9692
L2685 9632
L2685 9547
L2713 9495
L2741 9470
L2797 9449
L2966 9470
L3022 9505
L3050 9537
L3079 9597
L3079 9681
" />
<path d="M3022 9224
L3050 9199
L3079 9231
L3050 9256
L3022 9224
L3079 9231
" />
<path d="M2854 9203
L2516 9189
L2488 9157
L2516 9133
L2854 9203
L2488 9157
" />
</g>
<g style="fill:#000000; fill-opacity:0.0; 
stroke:#000000; stroke-width:59.0551; stroke-opacity:1; 
stroke-linecap:round; stroke-linejoin:round;">
<path d="M10840 15029
L340 15029
" />
<path d="M340 29
L10840 29
" />
</g>
<g style="fill:#000000; fill-opacity:0.0; 
stroke:#000000; stroke-width:39.3701; stroke-opacity:1; 
stroke-linecap:round; stroke-linejoin:round;">
</g>
<g style="fill:#000000; fill-opacity:1.0; 
stroke:#000000; stroke-width:39.3701; stroke-opacity:1; 
stroke-linecap:round; stroke-linejoin:round;">
<circle cx="9340" cy="7029.53" r="280.315" /> 
<circle cx="9340" cy="11029.5" r="280.315" /> 
<circle cx="7840" cy="9529.53" r="280.315" /> 
<circle cx="7840" cy="13529.5" r="280.315" /> 
<circle cx="7840" cy="1529.53" r="280.315" /> 
<circle cx="7840" cy="5529.53" r="280.315" /> 
<circle cx="9340" cy="13529.5" r="205.315" /> 
<circle cx="5340" cy="13529.5" r="205.315" /> 
<circle cx="9340" cy="5529.53" r="205.315" /> 
<circle cx="3340" cy="4529.53" r="205.315" /> 
<circle cx="3340" cy="3529.53" r="205.315" /> 
<circle cx="3340" cy="2529.53" r="205.315" /> 
<circle cx="3840" cy="6529.53" r="205.315" /> 
<circle cx="3840" cy="7529.53" r="205.315" /> 
<polyline style="fill-rule:evenodd;"
points="1059,1249
1620,1249
1620,1809
1059,1809
1059,1249
" /> 
<circle cx="1340" cy="2529.53" r="280.315" /> 
<circle cx="1340" cy="3529.53" r="280.315" /> 
<circle cx="1340" cy="4529.53" r="280.315" /> 
<polyline style="fill-rule:evenodd;"
points="1059,6249
1620,6249
1620,6809
1059,6809
1059,6249
" /> 
<circle cx="1340" cy="7529.53" r="280.315" /> 
<circle cx="6340" cy="7029.53" r="310.315" /> 
<circle cx="5340" cy="7029.53" r="310.315" /> 
<circle cx="6340" cy="11029.5" r="310.315" /> 
<circle cx="5340" cy="11029.5" r="310.315" /> 
<circle cx="6340" cy="1529.53" r="310.315" /> 
<circle cx="5340" cy="1529.53" r="310.315" /> 
</g>
<g style="fill:#000000; fill-opacity:1.0; 
stroke:#000000; stroke-width:511.811; stroke-opacity:1; 
stroke-linecap:round; stroke-linejoin:round;">
<path d="M1340 1529
L5340 1529
" />
</g>
<g style="fill:#000000; fill-opacity:1.0; 
stroke:#000000; stroke-width:257.48; stroke-opacity:1; 
stroke-linecap:round; stroke-linejoin:round;">
<path d="M5340 7029
L5340 11029
" />
<path d="M5340 1529
L5340 7029
" />
</g>
<g style="fill:#000000; fill-opacity:1.0; 
stroke:#000000; stroke-width:511.811; stroke-opacity:1; 
stroke-linecap:round; stroke-linejoin:round;">
<path d="M1340 4529
L3340 4529
" />
</g>
<g style="fill:#000000; fill-opacity:1.0; 
stroke:#000000; stroke-width:257.48; stroke-opacity:1; 
stroke-linecap:round; stroke-linejoin:round;">
<path d="M6340 1529
L7840 1529
" />
</g>
<g style="fill:#000000; fill-opacity:1.0; 
stroke:#000000; stroke-width:393.701; stroke-opacity:1; 
stroke-linecap:round; stroke-linejoin:round;">
<path d="M6340 11029
L6340 10029
" />
<path d="M6840 9529
L7840 9529
" />
<path d="M6340 10029
L6840 9529
" />
</g>
<g style="fill:#000000; fill-opacity:1.0; 
stroke:#000000; stroke-width:511.811; stroke-opacity:1; 
stroke-linecap:round; stroke-linejoin:round;">
<path d="M1340 3529
L3340 3529
" />
<path d="M7840 13529
L5340 13529
" />
<path d="M9340 11029
L9340 13529
" />
<path d="M1340 7529
L3840 7529
" />
<path d="M1340 6529
L3840 6529
" />
<path d="M1340 2529
L3340 2529
" />
<path d="M7840 5529
L9340 5529
" />
</g>
<g style="fill:#000000; fill-opacity:1.0; 
stroke:#000000; stroke-width:257.48; stroke-opacity:1; 
stroke-linecap:round; stroke-linejoin:round;">
<path d="M9340 7029
L6340 7029
" />
</g>
<g style="fill:#FFFFFF; fill-opacity:1.0; 
stroke:#FFFFFF; stroke-width:39.3701; stroke-opacity:1; 
stroke-linecap:round; stroke-linejoin:round;">
<circle cx="9340" cy="7029.53" r="140.315" /> 
<circle cx="9340" cy="11029.5" r="140.315" /> 
<circle cx="7840" cy="9529.53" r="140.315" /> 
<circle cx="7840" cy="13529.5" r="140.315" /> 
<circle cx="7840" cy="1529.53" r="140.315" /> 
<circle cx="7840" cy="5529.53" r="140.315" /> 
<circle cx="9340" cy="13529.5" r="105.315" /> 
<circle cx="5340" cy="13529.5" r="105.315" /> 
<circle cx="9340" cy="5529.53" r="105.315" /> 
<circle cx="3340" cy="4529.53" r="105.315" /> 
<circle cx="3340" cy="3529.53" r="105.315" /> 
<circle cx="3340" cy="2529.53" r="105.315" /> 
<circle cx="3840" cy="6529.53" r="105.315" /> 
<circle cx="3840" cy="7529.53" r="105.315" /> 
<circle cx="1340" cy="1529.53" r="180.315" /> 
<circle cx="1340" cy="2529.53" r="180.315" /> 
<circle cx="1340" cy="3529.53" r="180.315" /> 
<circle cx="1340" cy="4529.53" r="180.315" /> 
<circle cx="1340" cy="6529.53" r="180.315" /> 
<circle cx="1340" cy="7529.53" r="180.315" /> 
<circle cx="6340" cy="7029.53" r="140.315" /> 
<circle cx="5340" cy="7029.53" r="140.315" /> 
<circle cx="6340" cy="11029.5" r="140.315" /> 
<circle cx="5340" cy="11029.5" r="140.315" /> 
<circle cx="6340" cy="1529.53" r="140.315" /> 
<circle cx="5340" cy="1529.53" r="140.315" /> 
</g> 
</svg>
