<?xml version="1.0" standalone="no"?>
 <!DOCTYPE svg PUBLIC "-//W3C//DTD SVG 1.1//EN" 
 "http://www.w3.org/Graphics/SVG/1.1/DTD/svg11.dtd"> 
<svg xmlns="http://www.w3.org/2000/svg" version="1.1" 
    width="41.9989cm" height="29.7002cm" viewBox="0 0 165350 116930 ">
<title>SVG Picture created as cajas-B_Cu.svg date 2016/12/10 15:58:37 </title>
  <desc>Picture generated by PCBNEW </desc>
<g style="fill:#000000; fill-opacity:1;stroke:#000000; stroke-opacity:1;
stroke-linecap:round; stroke-linejoin:round; "
 transform="translate(0 0) scale(1 1)">
</g>
<g style="fill:#000000; fill-opacity:0.0; 
stroke:#000000; stroke-width:98.4252; stroke-opacity:1; 
stroke-linecap:round; stroke-linejoin:round;">
<path d="M66340 50644
L66734 50595
L66734 50501
L66715 50447
L66678 50415
L66640 50401
L66565 50391
L66509 50398
L66434 50426
L66396 50450
L66359 50492
L66340 50551
L66340 50644
" />
<path d="M66359 50098
L66340 50138
L66340 50213
L66359 50248
L66396 50262
L66546 50244
L66584 50220
L66603 50180
L66603 50105
L66584 50070
L66546 50056
L66509 50061
L66471 50253
" />
<path d="M66603 49712
L66340 49744
" />
<path d="M66603 49880
L66396 49906
L66359 49892
L66340 49857
L66340 49801
L66359 49761
L66378 49740
" />
<path d="M66603 49580
L66603 49430
" />
<path d="M66734 49508
L66396 49550
L66359 49536
L66340 49501
L66340 49463
" />
<path d="M66359 49180
L66340 49219
L66340 49294
L66359 49330
L66396 49344
L66546 49325
L66584 49301
L66603 49262
L66603 49187
L66584 49151
L66546 49137
L66509 49142
L66471 49334
" />
<path d="M66340 48994
L66603 48962
" />
<path d="M66528 48971
L66565 48948
L66584 48927
L66603 48887
L66603 48849
" />
<path d="M66340 48751
L66603 48718
" />
<path d="M66734 48702
L66715 48723
L66696 48706
L66715 48685
L66734 48702
L66696 48706
" />
<path d="M66340 48507
L66359 48542
L66378 48559
L66415 48573
L66528 48559
L66565 48535
L66584 48514
L66603 48474
L66603 48418
L66584 48383
L66565 48366
L66528 48352
L66415 48366
L66378 48390
L66359 48411
L66340 48451
L66340 48507
" />
</g>
<g style="fill:#000000; fill-opacity:0.0; 
stroke:#000000; stroke-width:59.0551; stroke-opacity:1; 
stroke-linecap:round; stroke-linejoin:round;">
</g>
<g style="fill:#000000; fill-opacity:1.0; 
stroke:#000000; stroke-width:59.0551; stroke-opacity:1; 
stroke-linecap:round; stroke-linejoin:round;">
<circle cx="65000" cy="62000" r="270.472" /> 
<circle cx="69000" cy="62000" r="270.472" /> 
<circle cx="65000" cy="53000" r="270.472" /> 
<circle cx="69000" cy="53000" r="270.472" /> 
<circle cx="65500" cy="66500" r="270.472" /> 
<circle cx="69500" cy="66500" r="270.472" /> 
<circle cx="63500" cy="62000" r="300.472" /> 
<circle cx="62500" cy="62000" r="300.472" /> 
<circle cx="63500" cy="53000" r="300.472" /> 
<circle cx="62500" cy="53000" r="300.472" /> 
<circle cx="63500" cy="66500" r="300.472" /> 
<circle cx="62500" cy="66500" r="300.472" /> 
<circle cx="54500" cy="51500" r="720.472" /> 
<circle cx="54500" cy="53500" r="720.472" /> 
<polyline style="fill-rule:evenodd;"
points="53779,48779
55220,48779
55220,50220
53779,50220
53779,48779
" /> 
<circle cx="54500" cy="55500" r="720.472" /> 
<circle cx="71500" cy="62000" r="770.472" /> 
<circle cx="72000" cy="53000" r="770.472" /> 
<circle cx="72500" cy="66500" r="770.472" /> 
<circle cx="60000" cy="55500" r="770.472" /> 
<circle cx="60000" cy="53500" r="770.472" /> 
<circle cx="60000" cy="51500" r="770.472" /> 
</g>
<g style="fill:#000000; fill-opacity:1.0; 
stroke:#000000; stroke-width:629.921; stroke-opacity:1; 
stroke-linecap:round; stroke-linejoin:round;">
<path d="M62500 62000
L62500 53000
" />
<path d="M54500 49500
L61500 49500
" />
<path d="M62500 50500
L62500 62000
" />
<path d="M61500 49500
L62500 50500
" />
<path d="M62500 62000
L62500 66500
" />
<path d="M63500 66500
L65500 66500
" />
<path d="M63500 62000
L65000 62000
" />
<path d="M69500 66500
L72500 66500
" />
<path d="M69000 53000
L72000 53000
" />
<path d="M69000 62000
L71500 62000
" />
<path d="M54500 55500
L60000 55500
" />
<path d="M54500 53500
L60000 53500
" />
<path d="M54500 51500
L60000 51500
" />
<path d="M63500 53000
L65000 53000
" />
</g> 
</svg>
